# xmcd
#
# Track frame offsets: 
#        150
#        12454
#        23364
#        33219
#        48364
#        58137
#        69419
#        81447
#        92234
#        104192
#        117512
#        127584
#
# Disc length: 1844 seconds
#
# Revision: 1
# Processed by: cddbd v1.5.2PL0 Copyright (c) Steve Scherf et al.
# Submitted via: ExactAudioCopyFreeDBPlugin 1.0
#
DISCID=9b07320c
DTITLE=The Nashville Harmonica - 12 of your favorites
DYEAR=1987
DGENRE=country
TTITLE0=orange blossom special
TTITLE1=i'm so lonsome i could cry
TTITLE2=name this song
TTITLE3=for the good times
TTITLE4=is anybody going to san antone
TTITLE5=satin sheets
TTITLE6=today i  started loving you again
TTITLE7=blues stay away from me
TTITLE8=dont expect me to be your friend
TTITLE9=shenandoah
TTITLE10=me and bobby mcgee
TTITLE11=silver wings
EXTD=
EXTT0=
EXTT1=
EXTT2=
EXTT3=
EXTT4=
EXTT5=
EXTT6=
EXTT7=
EXTT8=
EXTT9=
EXTT10=
EXTT11=
PLAYORDER=
